<?xml version="1.0" ?><svg xmlns="http://www.w3.org/2000/svg" xmlns:xlink="http://www.w3.org/1999/xlink" version="1.1" id="Layer_1" viewBox="0 0 100 100" style="enable-background:new 0 0 100 100;" xml:space="preserve"><style type="text/css">
	.st0{fill:#48EDE5;}
	.st1{fill:#333333;}
</style><g><path class="st0" d="M24.7,49.6h20c2.7,0,4.9-2.2,4.9-4.9v-20c0-2.7-2.2-4.9-4.9-4.9h-20c-2.7,0-4.9,2.2-4.9,4.9v20   C19.8,47.4,22,49.6,24.7,49.6z"/><g><path class="st1" d="M58.9,44.6c-0.8,0-1.5,0.7-1.5,1.5c0,0.8,0.7,1.5,1.5,1.5c0.8,0,1.5-0.7,1.5-1.5    C60.4,45.3,59.7,44.6,58.9,44.6z"/><path class="st1" d="M47.1,44.6c-0.8,0-1.5,0.7-1.5,1.5c0,0.8,0.7,1.5,1.5,1.5c0.8,0,1.5-0.7,1.5-1.5    C48.5,45.3,47.9,44.6,47.1,44.6z"/><path class="st1" d="M53,44.6c-0.8,0-1.5,0.7-1.5,1.5c0,0.8,0.7,1.5,1.5,1.5c0.8,0,1.5-0.7,1.5-1.5C54.5,45.3,53.8,44.6,53,44.6z"/><path class="st1" d="M76.2,41.5H43.6c-2.2,0-4,1.8-4,4v3.9c0,0,0,0,0,0v26.6c0,2.2,1.8,4,4,4h32.5c2.2,0,4-1.8,4-4V49.6    c0,0,0,0,0,0v-4.1C80.2,43.4,78.4,41.5,76.2,41.5z M51.3,78h-6.1c-0.1-0.1-0.2-0.2-0.2-0.2c-1.6-1.8-1.4-4.6,0.4-6.2    c1.8-1.6,4.6-1.5,6.2,0.4C53.1,73.7,53,76.4,51.3,78z M63.5,76.4c0,0.6-0.5,1-1,0.9l-1.9-0.1c-0.7,0-1.3,0.3-1.7,0.8h-5.1    c1.3-2.3,1.1-5.3-0.8-7.4c-2.3-2.6-6.4-2.8-9-0.5c-2.2,2-2.7,5.1-1.4,7.6c-0.5-0.3-0.9-0.9-0.9-1.6V64.9c0.5,0.3,1.2,0.3,1.8,0.1    c0.7-0.4,1.5-0.6,2.3-0.8c0.9-0.2,1.5-0.9,1.5-1.8l0.1-1.9c0-0.6,0.5-1,1-0.9l1.3,0.1c0.6,0,1,0.5,0.9,1l-0.1,1.9    c0,0.9,0.5,1.7,1.3,2c0.8,0.3,1.5,0.6,2.2,1.1c0.7,0.5,1.7,0.4,2.4-0.2l1.4-1.2c0.4-0.4,1-0.3,1.4,0.1l0.8,0.9    c0.4,0.4,0.3,1-0.1,1.4l-1.4,1.2c-0.7,0.6-0.9,1.5-0.5,2.3c0.4,0.7,0.6,1.5,0.8,2.3c0.2,0.9,0.9,1.5,1.8,1.5l1.9,0.1    c0.5,0,1,0.5,0.9,1L63.5,76.4z M78,76.2c0,1-0.8,1.9-1.9,1.9H64.9c0.3-0.4,0.5-1,0.5-1.5l0.1-1.3c0.1-1.6-1.1-3-2.8-3.1L60.9,72    c-0.2-0.9-0.5-1.8-0.9-2.7l1.4-1.2c1.2-1.1,1.3-3,0.2-4.2l-0.9-0.9c-1.1-1.2-3-1.3-4.2-0.2l-1.4,1.2c-0.8-0.5-1.7-0.9-2.6-1.3    l0.1-1.9c0.1-1.6-1.2-3-2.8-3.1l-1.3-0.1c-1.6-0.1-3,1.2-3.1,2.8l-0.1,1.9c-0.9,0.2-1.8,0.5-2.7,0.9l-0.9-1.1V50.6L78,50.7V76.2z     M78,48.6l-36.3-0.1v-2.9c0-1,0.8-1.9,1.9-1.9h32.5c1,0,1.9,0.8,1.9,1.9V48.6z"/><path class="st1" d="M33.2,27.9h10.1c0.6,0,1.1-0.5,1.1-1.1c0-0.6-0.5-1.1-1.1-1.1H33.2c-0.6,0-1.1,0.5-1.1,1.1    C32.1,27.5,32.6,27.9,33.2,27.9z"/><path class="st1" d="M33.2,35.8h10.1c0.6,0,1.1-0.5,1.1-1.1c0-0.6-0.5-1.1-1.1-1.1H33.2c-0.6,0-1.1,0.5-1.1,1.1    C32.1,35.3,32.6,35.8,33.2,35.8z"/><path class="st1" d="M36.7,41.5h-3.5c-0.6,0-1.1,0.5-1.1,1.1c0,0.6,0.5,1.1,1.1,1.1h3.5c0.6,0,1.1-0.5,1.1-1.1    C37.8,42,37.3,41.5,36.7,41.5z"/><path class="st1" d="M28.6,25.8h-2.4c-0.6,0-1.1,0.5-1.1,1.1c0,0.6,0.5,1.1,1.1,1.1h2.4c0.6,0,1.1-0.5,1.1-1.1    C29.6,26.3,29.2,25.8,28.6,25.8z"/><path class="st1" d="M28.6,33.6h-2.4c-0.6,0-1.1,0.5-1.1,1.1c0,0.6,0.5,1.1,1.1,1.1h2.4c0.6,0,1.1-0.5,1.1-1.1    C29.6,34.1,29.2,33.6,28.6,33.6z"/><path class="st1" d="M28.6,41.5h-2.4c-0.6,0-1.1,0.5-1.1,1.1c0,0.6,0.5,1.1,1.1,1.1h2.4c0.6,0,1.1-0.5,1.1-1.1    C29.6,42,29.2,41.5,28.6,41.5z"/></g></g></svg>