<?xml version="1.0" encoding="utf-8"?>
<!-- Uploaded to: SVG Repo, www.svgrepo.com, Generator: SVG Repo Mixer Tools -->
<svg width="800px" height="800px" viewBox="0 0 1024 1024" class="icon"  version="1.1" xmlns="http://www.w3.org/2000/svg"><path d="M993.763 493.538v35c0 13.331-6.04 26.664-18.135 37.137-140.15 121.422-280.35 242.795-420.49 364.219-11.814 10.237-25.813 15.501-42.454 15.501v-35c16.643 0 30.64-5.264 42.454-15.501 140.141-121.424 280.336-242.802 420.49-364.217 12.095-10.475 18.135-23.803 18.135-37.139z" fill="#93C8D8" /><path d="M30.239 528.367v-3.5-1.75-3.5-3.5-1.75-3.5-3.5-1.75-3.5-3.5-1.75-3.5c0 14.707 6.701 29.313 19.037 40.019 138.449 120.064 277.049 239.996 415.562 360.02 13.002 11.26 28.74 16.466 47.852 16.994v35c-19.108-0.528-34.85-5.734-47.852-16.994C326.325 808.382 187.725 688.45 49.276 568.386c-12.337-10.705-19.037-25.312-19.037-40.019z" fill="#93C8D8" /><path d="M510.786 76.601c16.263 0 32.546 5.362 44.946 16.097 139.95 121.188 279.901 242.376 419.819 363.586 24.241 20.995 24.295 53.413 0.079 74.397-140.15 121.42-280.35 242.796-420.489 364.217-11.815 10.239-25.813 15.502-42.452 15.502-19.109-0.528-34.852-5.734-47.854-16.994-138.511-120.024-277.111-239.956-415.56-360.02-19.581-16.988-24.96-43.81-11.895-65.251 3.919-6.438 8.669-11.829 14.465-16.849C189.954 331.734 328.024 212.152 466.107 92.567c12.296-10.64 28.478-15.966 44.679-15.966z" fill="#A5DAEE" /><path d="M738.095 361.3v16.8c-0.01 1.553-0.022 3.106-0.03 4.669v-16.8c0.009-1.562 0.02-3.115 0.03-4.669z" fill="#519EBB" /><path d="M738.095 361.3v16.8c-0.01 1.553-0.022 3.106-0.03 4.669v-16.8c0.009-1.562 0.02-3.115 0.03-4.669" fill="#519EBB" /><path d="M738.095 376.995v16.8c0 0.759 0 1.519-0.01 2.278v-16.8c0.01-0.759 0.01-1.519 0.01-2.278z" fill="#519EBB" /><path d="M738.095 376.995v16.8c0 0.759 0 1.519-0.01 2.278v-16.8c0.01-0.759 0.01-1.519 0.01-2.278" fill="#519EBB" /><path d="M711.145 370.807v16.8c0-6.96-1.302-14.148-3.886-21.511-8.577-24.451-28.345-40.27-57.244-45.76-6.31-1.197-12.466-1.798-18.446-1.798-20.075-0.001-38.19 6.747-53.756 20.234-24.595 21.308-49.209 42.6-73.805 63.908-3.601 3.125-7.48 5.482-12.317 5.482-1.271 0-2.607-0.161-4.023-0.517-6.136-1.531-9.997-6.253-9.997-11.407v-16.8c0 5.153 3.861 9.877 9.997 11.407 1.415 0.354 2.752 0.517 4.023 0.517 4.838 0 8.717-2.358 12.317-5.482 24.596-21.309 49.21-42.6 73.805-63.909 15.565-13.487 33.682-20.235 53.756-20.234 5.979 0 12.137 0.6 18.446 1.798 28.899 5.491 48.667 21.31 57.244 45.761 2.584 7.362 3.886 14.552 3.886 21.511z" fill="#519EBB" /><path d="M711.145 370.807v16.8c0-6.96-1.302-14.148-3.886-21.511-8.577-24.451-28.345-40.27-57.244-45.76-6.31-1.197-12.466-1.798-18.446-1.798-3.922 0-7.768 0.258-11.534 0.773v-16.8a84.904 84.904 0 0 1 11.534-0.773c5.979 0 12.137 0.6 18.446 1.798 28.899 5.491 48.667 21.31 57.244 45.761 2.584 7.361 3.886 14.551 3.886 21.51M620.034 302.511v16.8a78.557 78.557 0 0 0-16.527 4.098v-16.8a78.496 78.496 0 0 1 16.527-4.098M603.507 306.608v16.8a79.735 79.735 0 0 0-15.433 7.679v-16.8a79.735 79.735 0 0 1 15.433-7.679M588.074 314.288v16.8a88.428 88.428 0 0 0-10.262 7.685c-24.595 21.308-49.209 42.6-73.805 63.908-1.165 1.011-2.357 1.94-3.604 2.737v-16.8c1.247-0.796 2.439-1.726 3.604-2.737 24.596-21.309 49.21-42.6 73.805-63.909a88.333 88.333 0 0 1 10.262-7.684M500.402 388.618v16.8c-1.158 0.741-2.358 1.364-3.626 1.829v-16.799c1.268-0.464 2.47-1.09 3.626-1.83M496.776 390.449v16.799c-0.997 0.368-2.036 0.636-3.121 0.785v-16.8a14.942 14.942 0 0 0 3.121-0.784M493.655 391.233v16.8c-0.639 0.088-1.293 0.131-1.966 0.131-1.271 0-2.607-0.161-4.023-0.517-6.136-1.531-9.999-6.253-9.999-11.407v-16.8c0 5.153 3.862 9.877 9.999 11.407 1.415 0.355 2.752 0.517 4.023 0.517 0.673 0 1.328-0.044 1.966-0.131" fill="#519EBB" /><path d="M453.99 528.751v-16.799c0 3.597 1.96 7.292 5.776 10.389 3.921 3.195 8.042 6.181 12.518 8.755 18.721 10.724 38.623 16.423 59.862 16.423 7.293 0 14.747-0.67 22.362-2.044 21.984-3.963 40.421-13.383 56.176-27.071 31.418-27.28 62.856-54.549 94.399-81.725 18.496-15.95 29.837-34.892 33.002-57.405v16.8c-3.166 22.514-14.506 41.456-33.002 57.405-31.541 27.176-62.979 54.446-94.399 81.725-15.755 13.688-34.191 23.108-56.176 27.071-7.614 1.372-15.069 2.044-22.362 2.044-21.237 0-41.141-5.699-59.862-16.422-4.476-2.575-8.597-5.561-12.518-8.756-3.815-3.097-5.776-6.792-5.776-10.39z" fill="#519EBB" /><path d="M738.085 379.273v16.8c-2.372 16.867-9.331 31.729-20.452 44.829v-16.8c11.121-13.1 18.08-27.962 20.452-44.829M717.633 424.103v16.8c-3.723 4.387-7.91 8.575-12.551 12.575-31.541 27.176-62.979 54.446-94.398 81.725-4.577 3.976-9.378 7.592-14.43 10.817v-16.8c5.051-3.226 9.853-6.842 14.43-10.817 31.418-27.28 62.856-54.549 94.398-81.725 4.638-4 8.828-8.188 12.551-12.575" fill="#519EBB" /><path d="M596.256 529.221v16.8a113.2 113.2 0 0 1-21.968 10.91v-16.8a113.314 113.314 0 0 0 21.968-10.91M574.286 540.131v16.8c-6.26 2.301-12.842 4.095-19.779 5.344a132.47 132.47 0 0 1-5.579 0.885v-16.8c1.852-0.253 3.711-0.548 5.579-0.885 6.937-1.251 13.52-3.045 19.779-5.344M548.928 546.359v16.8a123.965 123.965 0 0 1-16.781 1.159c-21.237 0-41.141-5.699-59.862-16.421-4.476-2.576-8.597-5.562-12.518-8.757-3.816-3.097-5.776-6.792-5.776-10.39v-16.799c0 3.597 1.96 7.292 5.776 10.389 3.921 3.195 8.042 6.181 12.518 8.755 18.721 10.724 38.623 16.423 59.862 16.423 5.502 0.001 11.096-0.382 16.781-1.159" fill="#519EBB" /><path d="M633.146 278.024c1.21 0 2.418 0.08 3.625 0.238 1.209-0.017 2.419-0.034 3.628-0.053 0.868-0.007 1.744-0.007 2.611-0.007 0.604 0.017 1.198 0.034 1.805 0.043 49.562 5.289 87.03 36.987 93.271 80.773 0 0.759 0 1.519 0.01 2.279-0.01 1.553-0.021 3.107-0.03 4.669v6.364c0.011 1.554 0.021 3.107 0.03 4.662 0 0.759 0 1.519-0.01 2.278-3.165 22.513-14.506 41.456-33.003 57.405-31.541 27.176-62.979 54.446-94.398 81.725-15.756 13.688-34.192 23.108-56.177 27.072-7.613 1.371-15.068 2.044-22.361 2.044-21.238 0-41.142-5.7-59.862-16.422-4.476-2.575-8.597-5.562-12.518-8.757-6.776-5.498-7.701-12.882-2.189-18.261 2.602-2.537 6.14-3.837 9.87-3.837 3.714 0 7.616 1.291 10.965 3.941 8.125 6.426 16.824 12.048 27.338 15.05 9.915 2.833 19.527 4.289 28.782 4.289 19.264 0 36.97-6.302 52.623-19.599 34.111-28.973 67.829-58.297 101.364-87.767 21.501-18.89 27.51-41.867 18.739-66.859-8.578-24.451-28.344-40.27-57.244-45.761-6.31-1.197-12.466-1.798-18.446-1.798-20.076-0.001-38.191 6.747-53.757 20.234-24.594 21.309-49.209 42.6-73.805 63.909-3.601 3.125-7.479 5.482-12.317 5.482-1.271 0-2.607-0.161-4.023-0.517-7.803-1.947-11.923-9.052-9.111-15.642 0.896-2.096 2.297-3.92 4.102-5.484 25.905-22.374 51.621-44.905 77.817-67.006 16.874-14.247 37.649-21.876 60.953-24.461 0.595-0.016 1.199-0.035 1.804-0.052h2.611c1.199 0.027 2.409 0.044 3.619 0.06a29.583 29.583 0 0 1 3.684-0.234z" fill="#81BFD2" /><path d="M564.355 440.751v16.8c0 2.878-1.179 5.738-3.52 8.07-2.595 2.587-6.262 3.94-10.065 3.94a16.4 16.4 0 0 1-10.032-3.441c-8.298-6.436-16.966-12.362-27.61-15.418-10.071-2.889-19.848-4.383-29.263-4.383-19.21 0-36.924 6.218-52.596 19.501-32.114 27.219-63.826 54.797-95.346 82.528-15.211 13.391-22.879 28.793-22.879 45.53v-16.8c0-16.735 7.669-32.139 22.879-45.53 31.521-27.733 63.232-55.309 95.346-82.529 15.673-13.283 33.385-19.501 52.596-19.501 9.417 0 19.192 1.495 29.263 4.383 10.645 3.056 19.313 8.982 27.61 15.418a16.394 16.394 0 0 0 10.032 3.441c3.805 0 7.471-1.354 10.065-3.94 2.343-2.332 3.52-5.191 3.52-8.069z" fill="#519EBB" /><path d="M564.355 440.751v16.8c0 0.217-0.007 0.438-0.021 0.657v-16.8c0.016-0.22 0.021-0.44 0.021-0.657" fill="#519EBB" /><path d="M564.336 441.409v16.8c-0.145 2.326-1.061 4.612-2.741 6.591V448c1.68-1.98 2.596-4.267 2.741-6.591M561.595 448v16.8a12.87 12.87 0 0 1-2.888 2.528v-16.8a12.703 12.703 0 0 0 2.888-2.528M558.706 450.528v16.8c-0.833 0.531-1.725 0.97-2.659 1.314v-16.8a13.905 13.905 0 0 0 2.659-1.314M556.047 451.842v16.8a14.958 14.958 0 0 1-3.138 0.775v-16.8a15.145 15.145 0 0 0 3.138-0.775M552.909 452.617v16.8c-0.703 0.096-1.418 0.145-2.137 0.145a16.403 16.403 0 0 1-10.033-3.441c-8.297-6.436-16.965-12.362-27.61-15.418-10.07-2.889-19.847-4.383-29.263-4.383-3.874 0-7.684 0.251-11.43 0.764v-16.8a84.152 84.152 0 0 1 11.43-0.764c9.417 0 19.192 1.495 29.263 4.383 10.646 3.056 19.313 8.982 27.61 15.418a16.396 16.396 0 0 0 10.033 3.441c0.719 0 1.434-0.05 2.137-0.145" fill="#519EBB" /><path d="M472.437 430.283v16.8a77.606 77.606 0 0 0-16.304 4.044v-16.8a77.714 77.714 0 0 1 16.304-4.044M456.133 434.327v16.8c-5.265 1.936-10.373 4.467-15.305 7.618v-16.8c4.935-3.151 10.04-5.682 15.305-7.618M440.828 441.946v16.8a88.621 88.621 0 0 0-9.559 7.075c-32.114 27.219-63.826 54.797-95.346 82.528-3.18 2.801-6.032 5.689-8.551 8.659v-16.801c2.52-2.969 5.371-5.858 8.551-8.658 31.521-27.733 63.232-55.309 95.346-82.529a88.744 88.744 0 0 1 9.559-7.074M327.371 540.207v16.8c-8.742 10.301-13.501 21.59-14.23 33.601v-16.801c0.729-12.011 5.488-23.298 14.23-33.6" fill="#519EBB" /><path d="M313.141 573.807v16.801a54.602 54.602 0 0 0-0.098 3.271v-16.8c0-1.097 0.034-2.187 0.098-3.272" fill="#519EBB" /><path d="M286.208 588.8v16.8l-0.303-10.746v-16.8z" fill="#519EBB" /><path d="M394.981 670.839v16.8a41.21 41.21 0 0 1-1.504 0.027c-2.737 0-5.076-0.268-9.514-0.75-2.731-0.297-6.573-0.856-9.495-1.25-43.958-5.893-78.806-35.014-87.031-72.796-0.525-2.4-0.827-4.844-1.23-7.27v-16.8c0.403 2.426 0.706 4.87 1.23 7.27 8.225 37.782 43.073 66.903 87.031 72.796 2.922 0.393 6.765 0.953 9.495 1.25 4.437 0.482 6.777 0.75 9.514 0.75 0.485-0.001 0.982-0.01 1.504-0.027z" fill="#519EBB" /><path d="M394.981 670.839v16.8a41.21 41.21 0 0 1-1.504 0.027c-2.737 0-5.076-0.268-9.514-0.75-2.731-0.297-6.573-0.856-9.495-1.25-43.958-5.893-78.806-35.014-87.031-72.796-0.525-2.4-0.827-4.844-1.23-7.27v-16.8c0.403 2.426 0.706 4.87 1.23 7.27 8.225 37.782 43.073 66.903 87.031 72.796 2.922 0.393 6.765 0.953 9.495 1.25 4.437 0.482 6.777 0.75 9.514 0.75 0.485-0.001 0.982-0.01 1.504-0.027" fill="#519EBB" /><path d="M534.792 578.563v16.8c0 1.37-0.269 2.777-0.839 4.179-0.865 2.12-2.208 3.97-4.012 5.524-22.316 19.249-44.371 38.733-67.092 57.621-16.874 14.022-36.812 22.718-60.037 24.978v-16.8c23.224-2.26 43.163-10.955 60.037-24.978 22.721-18.888 44.775-38.373 67.092-57.621 1.804-1.555 3.146-3.406 4.012-5.525 0.57-1.401 0.839-2.809 0.839-4.178z" fill="#519EBB" /><path d="M534.792 578.563v16.8c0 0.216-0.007 0.435-0.021 0.652v-16.8c0.014-0.218 0.021-0.436 0.021-0.652M534.771 579.216v16.8a11.167 11.167 0 0 1-0.817 3.527 14.222 14.222 0 0 1-2.331 3.836v-16.8a14.222 14.222 0 0 0 2.331-3.836c0.479-1.181 0.745-2.365 0.817-3.527" fill="#519EBB" /><path d="M531.623 586.578v16.8a14.952 14.952 0 0 1-1.68 1.688c-22.317 19.249-44.371 38.733-67.091 57.621a113.662 113.662 0 0 1-11.482 8.403v-16.8c3.975-2.539 7.8-5.344 11.482-8.403 22.72-18.888 44.774-38.373 67.091-57.621a15.12 15.12 0 0 0 1.68-1.688M451.369 654.292v16.8a106.713 106.713 0 0 1-20.734 10.299v-16.8a106.94 106.94 0 0 0 20.734-10.299" fill="#519EBB" /><path d="M430.636 664.591v16.8c-7.331 2.693-15.069 4.623-23.227 5.738v-16.8c8.158-1.115 15.896-3.045 23.227-5.738M407.409 670.329v16.8c-1.516 0.207-3.047 0.386-4.595 0.537v-16.8a123.27 123.27 0 0 0 4.595-0.537" fill="#519EBB" /><path d="M486.52 405.537c27.367-0.001 51.699 8.814 72.967 25.842 6.039 4.837 6.432 12.378 1.351 17.443-2.595 2.586-6.262 3.94-10.064 3.94a16.396 16.396 0 0 1-10.033-3.441c-8.297-6.436-16.965-12.362-27.61-15.418-10.07-2.889-19.847-4.383-29.263-4.383-19.21 0-36.924 6.218-52.596 19.501-32.115 27.22-63.826 54.797-95.345 82.529-21.571 18.989-27.973 42.027-18.851 67.167 9.285 25.569 30.169 41.545 60.873 46.223 5.042 0.77 9.974 1.152 14.781 1.152 20.156 0 38.176-6.732 53.542-20.025 20.796-18 41.612-36.002 62.386-54.028 3.489-3.03 7.317-5.268 12.217-5.268 0.662 0 1.343 0.041 2.047 0.127 8.819 1.056 14.001 8.555 11.037 15.844-0.865 2.121-2.207 3.971-4.012 5.525-22.316 19.247-44.37 38.732-67.09 57.621-16.875 14.022-36.813 22.718-60.039 24.976-0.831 0.231-1.494 0.313-2.099 0.313-0.674 0-1.273-0.101-1.943-0.197a15.033 15.033 0 0 0-2.395-0.204c-0.42 0-0.881 0.019-1.395 0.063-0.522 0.018-1.02 0.025-1.504 0.025-2.737 0-5.077-0.267-9.515-0.749-2.731-0.298-6.572-0.855-9.495-1.249-43.958-5.893-78.806-35.014-87.031-72.796-0.525-2.401-0.827-4.845-1.23-7.27l-0.302-10.748c0.019-0.793 0.283-7.176 0.291-7.961 0.01-0.516 0.01-1.03 0.021-1.546 3.205-22.653 14.707-41.641 33.345-57.666 29.556-25.412 58.947-50.973 88.362-76.515 16.803-14.578 36.631-24.364 60.218-27.558 6.265-0.848 12.395-1.269 18.374-1.269z" fill="#93C8D8" /><path d="M402.813 670.865v16.8c-0.832 0.231-1.495 0.311-2.099 0.311-0.674 0-1.273-0.1-1.943-0.197a15.038 15.038 0 0 0-2.396-0.203c-0.419 0-0.88 0.018-1.395 0.063v-16.8a15.93 15.93 0 0 1 1.395-0.063c0.969 0 1.72 0.101 2.396 0.204 0.67 0.096 1.269 0.197 1.943 0.197 0.604-0.001 1.268-0.081 2.099-0.312z" fill="#519EBB" /><path d="M402.813 670.865v16.8a8.854 8.854 0 0 1-1.164 0.246v-16.8a8.82 8.82 0 0 0 1.164-0.246M401.649 671.111v16.8a6.93 6.93 0 0 1-0.934 0.064c-0.674 0-1.272-0.1-1.942-0.197a15.06 15.06 0 0 0-2.396-0.203c-0.42 0-0.88 0.018-1.395 0.063v-16.8a15.93 15.93 0 0 1 1.395-0.063c0.971 0 1.72 0.101 2.396 0.204 0.67 0.096 1.269 0.197 1.942 0.197 0.293 0 0.601-0.02 0.934-0.065" fill="#519EBB" /></svg>